# xmcd
#
# Track frame offsets: 
#        182
#        16007
#        40232
#        64557
#        87970
#        114927
#        138657
#        155232
#        171407
#        195707
#        221082
#        245832
#        272307
#        288657
#        306732
#
# Disc length: 4356 seconds
#
# Revision: 7
# Processed by: cddbd v1.5.2PL0 Copyright (c) Steve Scherf et al.
# Submitted via: ExactAudioCopy v0.99pb3
#
DISCID=e311020f
DTITLE=Various Artist - STEREOPLAY Special CD 35 - Black Music
DYEAR=1988
DGENRE=
TTITLE0=Chic - Le Freak
TTITLE1=Alexander O'Neal - Fake
TTITLE2=LL Cool J - I Need Love
TTITLE3=Oran "Juice" Jones - The Rain
TTITLE4=Womack and Womack - Love Wars
TTITLE5=Patti LaBelle - Oh, People
TTITLE6=Billy Ocean - European Queen (No More Love On The Run)
TTITLE7=DJ Jazzy Jeff and Fresh Prince - Girls Ain't Nothing But Trouble
TTITLE8=Tashan - Chasin' A Dream
TTITLE9=Earth, Wind and Fire - Let's Groove
TTITLE10=Weather Girls - It's Raining Men
TTITLE11=James Brown - How Do You Stop
TTITLE12=Grandmaster Flash and the Furious Five - The Massage
TTITLE13=Marvin Gaye - Sexual Healing
TTITLE14=Anita Baker - Sweet Love
EXTD=
EXTT0=
EXTT1=
EXTT2=
EXTT3=
EXTT4=
EXTT5=
EXTT6=
EXTT7=
EXTT8=
EXTT9=
EXTT10=
EXTT11=
EXTT12=
EXTT13=
EXTT14=
PLAYORDER=
